<svg width="149" height="149" viewBox="0 0 149 149" fill="none" xmlns="http://www.w3.org/2000/svg">
<rect width="149" height="149" rx="74.5" fill="#F5F5F5"/>
<g clip-path="url(#clip0_127_1781)">
<path d="M68.4166 83.2102C64.2581 82.0001 60.6046 79.4732 58.0049 76.0092C55.4053 72.5452 53.9999 68.3311 53.9999 64.0002V37.3335H93.9999V67.3335M53.9999 44.0002H37.3333V57.3335C37.3333 65.6968 43.3033 70.6668 50.6666 70.6668H53.9999M100.78 70.2835C106.473 68.9668 110.667 64.3435 110.667 57.3335V44.0002H93.9999M67.3333 97.3335H50.6666V110.667H88.9999M100.667 80.6668L85.6666 95.6668L77.3333 87.3335M68.0199 85.4135C65.8092 86.5228 63.9507 88.2252 62.6521 90.3302C61.3535 92.4353 60.666 94.8601 60.6666 97.3335M88.9999 67.3335C83.2536 67.3335 77.7426 69.6162 73.6793 73.6795C69.616 77.7428 67.3333 83.2538 67.3333 89.0002C67.3333 94.7465 69.616 100.258 73.6793 104.321C77.7426 108.384 83.2536 110.667 88.9999 110.667C94.7463 110.667 100.257 108.384 104.321 104.321C108.384 100.258 110.667 94.7465 110.667 89.0002C110.667 83.2538 108.384 77.7428 104.321 73.6795C100.257 69.6162 94.7463 67.3335 88.9999 67.3335Z" stroke="#030C63" stroke-width="6"/>
</g>
<defs>
<clipPath id="clip0_127_1781">
<rect width="80" height="80" fill="white" transform="translate(34 34)"/>
</clipPath>
</defs>
</svg>
