<svg width="150" height="149" viewBox="0 0 150 149" fill="none" xmlns="http://www.w3.org/2000/svg">
<rect x="0.5" width="149" height="149" rx="74.5" fill="#F5F5F5"/>
<path d="M88.75 54.625C88.75 54.2812 88.4688 54 88.125 54H58.125C57.7812 54 57.5 54.2812 57.5 54.625V58.375C57.5 58.7188 57.7812 59 58.125 59H88.125C88.4688 59 88.75 58.7188 88.75 58.375V54.625ZM88.125 65.25H58.125C57.7812 65.25 57.5 65.5312 57.5 65.875V69.625C57.5 69.9688 57.7812 70.25 58.125 70.25H88.125C88.4688 70.25 88.75 69.9688 88.75 69.625V65.875C88.75 65.5312 88.4688 65.25 88.125 65.25ZM72.5 76.5H58.125C57.7812 76.5 57.5 76.7812 57.5 77.125V80.875C57.5 81.2188 57.7812 81.5 58.125 81.5H72.5C72.8438 81.5 73.125 81.2188 73.125 80.875V77.125C73.125 76.7812 72.8438 76.5 72.5 76.5ZM68.75 100.562H51.25V45.5625H95V72.4375C95 72.7812 95.2812 73.0625 95.625 73.0625H100C100.344 73.0625 100.625 72.7812 100.625 72.4375V42.4375C100.625 41.0547 99.5078 39.9375 98.125 39.9375H48.125C46.7422 39.9375 45.625 41.0547 45.625 42.4375V103.688C45.625 105.07 46.7422 106.188 48.125 106.188H68.75C69.0938 106.188 69.375 105.906 69.375 105.562V101.188C69.375 100.844 69.0938 100.562 68.75 100.562ZM96.625 94.75C98.8906 92.6953 100.312 89.7266 100.312 86.4219C100.312 80.2109 95.2734 75.1719 89.0625 75.1719C82.8516 75.1719 77.8125 80.2109 77.8125 86.4219C77.8125 89.7266 79.2344 92.6953 81.5 94.75C77.0469 97.2891 73.9844 101.992 73.75 107.414C73.7344 107.766 74.0234 108.062 74.375 108.062H78.1328C78.4609 108.062 78.7344 107.805 78.7578 107.469C79.0625 102.063 83.5703 97.75 89.0625 97.75C94.5547 97.75 99.0625 102.063 99.3672 107.469C99.3828 107.797 99.6562 108.062 99.9922 108.062H103.75C104.109 108.062 104.391 107.766 104.375 107.414C104.148 101.984 101.078 97.2891 96.625 94.75ZM89.0625 80.1719C92.5156 80.1719 95.3125 82.9688 95.3125 86.4219C95.3125 89.875 92.5156 92.6719 89.0625 92.6719C85.6094 92.6719 82.8125 89.875 82.8125 86.4219C82.8125 82.9688 85.6094 80.1719 89.0625 80.1719Z" fill="#030C63"/>
</svg>
