<svg width="334" height="97" viewBox="0 0 334 97" fill="none" xmlns="http://www.w3.org/2000/svg">
<g clip-path="url(#clip0_111_539)">
<rect x="48.0599" width="67.967" height="67.967" rx="15.9298" transform="rotate(45 48.0599 0)" fill="white"/>
<line x1="63.3444" y1="13.2775" x2="9.6816" y2="63.4889" stroke="#030C63" stroke-width="4.77893"/>
<line x1="76.5235" y1="24.6989" x2="22.8606" y2="74.9103" stroke="#030C63" stroke-width="4.77893"/>
<line x1="90.1754" y1="38.3835" x2="36.5126" y2="88.5948" stroke="#030C63" stroke-width="4.77893"/>
</g>
<path d="M115.847 54.2907H123.481L127.318 59.2276L131.093 63.6253L138.209 72.545H129.828L124.933 66.5293L122.423 62.9615L115.847 54.2907ZM138.852 47.8187C138.852 52.4514 137.973 56.3927 136.217 59.6425C134.475 62.8923 132.096 65.3746 129.081 67.0894C126.08 68.7904 122.706 69.6409 118.959 69.6409C115.183 69.6409 111.795 68.7835 108.794 67.0687C105.793 65.3539 103.422 62.8716 101.679 59.6217C99.9367 56.3719 99.0655 52.4376 99.0655 47.8187C99.0655 43.186 99.9367 39.2447 101.679 35.9949C103.422 32.745 105.793 30.2696 108.794 28.5687C111.795 26.8539 115.183 25.9965 118.959 25.9965C122.706 25.9965 126.08 26.8539 129.081 28.5687C132.096 30.2696 134.475 32.745 136.217 35.9949C137.973 39.2447 138.852 43.186 138.852 47.8187ZM129.745 47.8187C129.745 44.8178 129.296 42.2871 128.397 40.2265C127.512 38.166 126.26 36.6033 124.642 35.5385C123.024 34.4737 121.13 33.9413 118.959 33.9413C116.787 33.9413 114.893 34.4737 113.275 35.5385C111.657 36.6033 110.398 38.166 109.499 40.2265C108.614 42.2871 108.172 44.8178 108.172 47.8187C108.172 50.8196 108.614 53.3503 109.499 55.4108C110.398 57.4713 111.657 59.034 113.275 60.0989C114.893 61.1637 116.787 61.6961 118.959 61.6961C121.13 61.6961 123.024 61.1637 124.642 60.0989C126.26 59.034 127.512 57.4713 128.397 55.4108C129.296 53.3503 129.745 50.8196 129.745 47.8187ZM165.771 55.4938V37.198H174.608V69.0601H166.124V63.2726H165.792C165.073 65.1395 163.877 66.64 162.204 67.774C160.544 68.9079 158.518 69.4749 156.126 69.4749C153.996 69.4749 152.122 68.9909 150.504 68.0229C148.886 67.0549 147.621 65.6789 146.708 63.8949C145.809 62.111 145.353 59.9744 145.339 57.4852V37.198H154.176V55.9087C154.19 57.7894 154.694 59.276 155.69 60.3685C156.686 61.461 158.02 62.0073 159.694 62.0073C160.758 62.0073 161.754 61.7652 162.681 61.2812C163.607 60.7834 164.354 60.0504 164.921 59.0824C165.502 58.1144 165.785 56.9182 165.771 55.4938ZM181.677 69.0601V37.198H190.513V69.0601H181.677ZM186.116 33.0908C184.802 33.0908 183.675 32.6552 182.735 31.7839C181.808 30.8989 181.345 29.8409 181.345 28.6102C181.345 27.3932 181.808 26.3491 182.735 25.4779C183.675 24.5928 184.802 24.1503 186.116 24.1503C187.429 24.1503 188.55 24.5928 189.476 25.4779C190.417 26.3491 190.887 27.3932 190.887 28.6102C190.887 29.8409 190.417 30.8989 189.476 31.7839C188.55 32.6552 187.429 33.0908 186.116 33.0908ZM197.426 69.0601V63.7912L213.025 44.479V44.2508H197.965V37.198H223.667V42.9439L209.022 61.7791V62.0073H224.206V69.0601H197.426ZM230.963 69.0601V37.198H239.8V69.0601H230.963ZM235.402 33.0908C234.089 33.0908 232.962 32.6552 232.021 31.7839C231.095 30.8989 230.631 29.8409 230.631 28.6102C230.631 27.3932 231.095 26.3491 232.021 25.4779C232.962 24.5928 234.089 24.1503 235.402 24.1503C236.716 24.1503 237.836 24.5928 238.763 25.4779C239.703 26.3491 240.173 27.3932 240.173 28.6102C240.173 29.8409 239.703 30.8989 238.763 31.7839C237.836 32.6552 236.716 33.0908 235.402 33.0908ZM261.275 69.6824C258.011 69.6824 255.204 68.9909 252.853 67.608C250.516 66.2113 248.718 64.2752 247.46 61.7998C246.215 59.3244 245.593 56.4756 245.593 53.2535C245.593 49.9898 246.222 47.1272 247.48 44.6657C248.753 42.1903 250.557 40.2611 252.894 38.8782C255.231 37.4815 258.011 36.7831 261.233 36.7831C264.013 36.7831 266.447 37.2879 268.535 38.2974C270.623 39.3069 272.276 40.7244 273.493 42.5498C274.71 44.3752 275.38 46.5187 275.505 48.9803H267.166C266.931 47.39 266.308 46.1108 265.299 45.1428C264.303 44.1609 262.996 43.67 261.378 43.67C260.009 43.67 258.813 44.0434 257.79 44.7901C256.78 45.5231 255.992 46.5948 255.425 48.0054C254.858 49.4159 254.575 51.1238 254.575 53.129C254.575 55.1619 254.851 56.8905 255.404 58.3149C255.971 59.7393 256.766 60.8249 257.79 61.5716C258.813 62.3184 260.009 62.6918 261.378 62.6918C262.388 62.6918 263.294 62.4844 264.096 62.0695C264.912 61.6546 265.582 61.0531 266.108 60.2648C266.647 59.4627 267 58.5016 267.166 57.3814H275.505C275.367 59.8154 274.703 61.9589 273.513 63.8119C272.338 65.6512 270.713 67.0894 268.639 68.1266C266.564 69.1638 264.11 69.6824 261.275 69.6824ZM289.999 26.5773V69.0601H281.163V26.5773H289.999ZM311.599 69.6824C308.321 69.6824 305.5 69.0186 303.135 67.691C300.784 66.3496 298.973 64.455 297.7 62.0073C296.428 59.5457 295.792 56.6347 295.792 53.2742C295.792 49.9967 296.428 47.1203 297.7 44.6449C298.973 42.1695 300.764 40.2404 303.073 38.8575C305.396 37.4746 308.121 36.7831 311.246 36.7831C313.348 36.7831 315.305 37.1219 317.116 37.7995C318.942 38.4633 320.532 39.4659 321.887 40.8074C323.256 42.1488 324.321 43.8359 325.082 45.8688C325.842 47.8878 326.223 50.2526 326.223 52.9631V55.3901H299.318V49.9138H317.905C317.905 48.6415 317.628 47.5144 317.075 46.5326C316.522 45.5507 315.754 44.7832 314.772 44.23C313.804 43.6631 312.677 43.3796 311.391 43.3796C310.05 43.3796 308.86 43.6907 307.823 44.313C306.8 44.9215 305.998 45.7443 305.417 46.7815C304.836 47.8048 304.539 48.9457 304.525 50.2042V55.4108C304.525 56.9873 304.815 58.3495 305.396 59.4973C305.991 60.6451 306.828 61.5302 307.906 62.1525C308.985 62.7748 310.264 63.0859 311.744 63.0859C312.726 63.0859 313.625 62.9476 314.44 62.671C315.256 62.3945 315.955 61.9796 316.536 61.4264C317.116 60.8733 317.559 60.1957 317.863 59.3936L326.036 59.9329C325.621 61.8966 324.771 63.6114 323.485 65.0773C322.212 66.5293 320.567 67.6633 318.548 68.4792C316.542 69.2813 314.226 69.6824 311.599 69.6824Z" fill="white"/>
<defs>
<clipPath id="clip0_111_539">
<rect x="48.0599" width="67.967" height="67.967" rx="15.9298" transform="rotate(45 48.0599 0)" fill="white"/>
</clipPath>
</defs>
</svg>
