<svg width="164" height="48" viewBox="0 0 164 48" fill="none" xmlns="http://www.w3.org/2000/svg">
<g clip-path="url(#clip0_76_179)">
<rect x="23.6198" width="33.4035" height="33.4035" rx="7.82894" transform="rotate(45 23.6198 0)" fill="#030C63"/>
<line x1="31.1315" y1="6.52547" x2="4.75801" y2="31.2027" stroke="white" stroke-width="2.34868"/>
<line x1="37.6089" y1="12.1388" x2="11.2354" y2="36.8159" stroke="white" stroke-width="2.34868"/>
<line x1="44.3182" y1="18.8641" x2="17.9448" y2="43.5413" stroke="white" stroke-width="2.34868"/>
</g>
<path d="M56.9349 26.8612H60.6865L62.5726 29.2876L64.428 31.4488L67.9248 35.8326H63.8061L61.4002 32.8761L60.1666 31.1226L56.9349 26.8612ZM68.2408 23.6805C68.2408 25.9573 67.8093 27.8943 66.9461 29.4915C66.0897 31.0886 64.9207 32.3086 63.4391 33.1514C61.9643 33.9873 60.3059 34.4053 58.4641 34.4053C56.6086 34.4053 54.9435 33.9839 53.4686 33.1412C51.9938 32.2984 50.8282 31.0784 49.9719 29.4813C49.1155 27.8841 48.6873 25.9505 48.6873 23.6805C48.6873 21.4036 49.1155 19.4666 49.9719 17.8694C50.8282 16.2723 51.9938 15.0557 53.4686 14.2197C54.9435 13.377 56.6086 12.9556 58.4641 12.9556C60.3059 12.9556 61.9643 13.377 63.4391 14.2197C64.9207 15.0557 66.0897 16.2723 66.9461 17.8694C67.8093 19.4666 68.2408 21.4036 68.2408 23.6805ZM63.7653 23.6805C63.7653 22.2056 63.5445 20.9619 63.1027 19.9492C62.6677 18.9365 62.0526 18.1685 61.2574 17.6452C60.4622 17.1218 59.5311 16.8602 58.4641 16.8602C57.397 16.8602 56.4659 17.1218 55.6707 17.6452C54.8755 18.1685 54.257 18.9365 53.8153 19.9492C53.3803 20.9619 53.1628 22.2056 53.1628 23.6805C53.1628 25.1553 53.3803 26.3991 53.8153 27.4117C54.257 28.4244 54.8755 29.1924 55.6707 29.7157C56.4659 30.2391 57.397 30.5007 58.4641 30.5007C59.5311 30.5007 60.4622 30.2391 61.2574 29.7157C62.0526 29.1924 62.6677 28.4244 63.1027 27.4117C63.5445 26.3991 63.7653 25.1553 63.7653 23.6805ZM81.4711 27.4525V18.4607H85.814V34.1199H81.6444V31.2755H81.4813C81.1278 32.1931 80.5399 32.9305 79.7176 33.4878C78.902 34.0451 77.9063 34.3238 76.7305 34.3238C75.6838 34.3238 74.7629 34.0859 73.9677 33.6101C73.1725 33.1344 72.5507 32.4581 72.1021 31.5814C71.6603 30.7046 71.436 29.6546 71.4292 28.4312V18.4607H75.7722V27.6564C75.779 28.5807 76.0271 29.3114 76.5164 29.8483C77.0058 30.3852 77.6616 30.6537 78.484 30.6537C79.0073 30.6537 79.4967 30.5347 79.952 30.2968C80.4074 30.0522 80.7744 29.692 81.0531 29.2162C81.3385 28.7404 81.4779 28.1525 81.4711 27.4525ZM89.2879 34.1199V18.4607H93.6308V34.1199H89.2879ZM91.4696 16.4422C90.8239 16.4422 90.27 16.2281 89.8078 15.7999C89.3524 15.3649 89.1248 14.845 89.1248 14.2401C89.1248 13.642 89.3524 13.1289 89.8078 12.7007C90.27 12.2657 90.8239 12.0482 91.4696 12.0482C92.1152 12.0482 92.6657 12.2657 93.1211 12.7007C93.5833 13.1289 93.8143 13.642 93.8143 14.2401C93.8143 14.845 93.5833 15.3649 93.1211 15.7999C92.6657 16.2281 92.1152 16.4422 91.4696 16.4422ZM97.0282 34.1199V31.5304L104.695 22.0391V21.927H97.2933V18.4607H109.925V21.2847L102.727 30.5415V30.6537H110.19V34.1199H97.0282ZM113.511 34.1199V18.4607H117.854V34.1199H113.511ZM115.692 16.4422C115.047 16.4422 114.493 16.2281 114.031 15.7999C113.575 15.3649 113.347 14.845 113.347 14.2401C113.347 13.642 113.575 13.1289 114.031 12.7007C114.493 12.2657 115.047 12.0482 115.692 12.0482C116.338 12.0482 116.888 12.2657 117.344 12.7007C117.806 13.1289 118.037 13.642 118.037 14.2401C118.037 14.845 117.806 15.3649 117.344 15.7999C116.888 16.2281 116.338 16.4422 115.692 16.4422ZM128.408 34.4257C126.804 34.4257 125.424 34.0859 124.269 33.4062C123.12 32.7198 122.236 31.7683 121.618 30.5517C121.006 29.3351 120.7 27.9351 120.7 26.3515C120.7 24.7475 121.01 23.3406 121.628 22.1309C122.253 20.9143 123.14 19.9662 124.289 19.2865C125.438 18.6001 126.804 18.2568 128.387 18.2568C129.753 18.2568 130.95 18.5049 131.976 19.0011C133.002 19.4972 133.814 20.1939 134.412 21.091C135.01 21.9881 135.34 23.0416 135.401 24.2514H131.303C131.187 23.4698 130.882 22.8411 130.385 22.3653C129.896 21.8828 129.254 21.6415 128.459 21.6415C127.786 21.6415 127.198 21.825 126.695 22.192C126.199 22.5522 125.811 23.079 125.533 23.7722C125.254 24.4654 125.115 25.3048 125.115 26.2903C125.115 27.2894 125.251 28.139 125.523 28.839C125.801 29.539 126.192 30.0726 126.695 30.4396C127.198 30.8066 127.786 30.9901 128.459 30.9901C128.955 30.9901 129.4 30.8881 129.794 30.6842C130.195 30.4803 130.525 30.1847 130.783 29.7973C131.048 29.4031 131.221 28.9307 131.303 28.3802H135.401C135.333 29.5764 135.007 30.6299 134.423 31.5406C133.845 32.4445 133.046 33.1514 132.027 33.6611C131.007 34.1708 129.801 34.4257 128.408 34.4257ZM142.525 13.241V34.1199H138.182V13.241H142.525ZM153.14 34.4257C151.529 34.4257 150.143 34.0995 148.981 33.447C147.825 32.7878 146.935 31.8566 146.31 30.6537C145.684 29.4439 145.372 28.0132 145.372 26.3617C145.372 24.7509 145.684 23.3372 146.31 22.1207C146.935 20.9041 147.815 19.956 148.95 19.2763C150.092 18.5967 151.431 18.2568 152.967 18.2568C154 18.2568 154.962 18.4234 155.852 18.7564C156.749 19.0826 157.531 19.5754 158.197 20.2346C158.87 20.8939 159.393 21.7231 159.767 22.7221C160.141 23.7144 160.327 24.8766 160.327 26.2088V27.4015H147.105V24.7101H156.239C156.239 24.0848 156.103 23.5309 155.832 23.0484C155.56 22.5658 155.182 22.1886 154.7 21.9168C154.224 21.6381 153.67 21.4988 153.038 21.4988C152.379 21.4988 151.794 21.6517 151.285 21.9575C150.782 22.2566 150.388 22.661 150.102 23.1707C149.817 23.6737 149.671 24.2344 149.664 24.8528V27.4117C149.664 28.1865 149.806 28.856 150.092 29.4201C150.384 29.9842 150.795 30.4192 151.325 30.725C151.856 31.0309 152.484 31.1838 153.211 31.1838C153.694 31.1838 154.136 31.1158 154.537 30.9799C154.938 30.844 155.281 30.6401 155.566 30.3682C155.852 30.0963 156.069 29.7633 156.219 29.3691L160.236 29.6342C160.032 30.5993 159.614 31.4421 158.982 32.1625C158.356 32.8761 157.548 33.4334 156.555 33.8344C155.57 34.2286 154.431 34.4257 153.14 34.4257Z" fill="#030C63"/>
<defs>
<clipPath id="clip0_76_179">
<rect x="23.6198" width="33.4035" height="33.4035" rx="7.82894" transform="rotate(45 23.6198 0)" fill="white"/>
</clipPath>
</defs>
</svg>
