<svg width="150" height="149" viewBox="0 0 150 149" fill="none" xmlns="http://www.w3.org/2000/svg">
<rect x="0.5" width="149" height="149" rx="74.5" fill="#F5F5F5"/>
<path d="M48.3333 54.5002H101.667V87.8335H48.3333M101.667 94.5002C103.435 94.5002 105.13 93.7978 106.381 92.5475C107.631 91.2973 108.333 89.6016 108.333 87.8335V54.5002C108.333 52.7321 107.631 51.0364 106.381 49.7861C105.13 48.5359 103.435 47.8335 101.667 47.8335H48.3333C44.6333 47.8335 41.6667 50.8002 41.6667 54.5002V87.8335C41.6667 89.6016 42.369 91.2973 43.6193 92.5475C44.8695 93.7978 46.5652 94.5002 48.3333 94.5002H35V101.167H115V94.5002H101.667Z" fill="#030C63"/>
</svg>
